<?xml version="1.0" standalone="no"?>
<!DOCTYPE svg PUBLIC "-//W3C//DTD SVG 20010904//EN"
 "http://www.w3.org/TR/2001/REC-SVG-20010904/DTD/svg10.dtd">
<svg version="1.0" xmlns="http://www.w3.org/2000/svg"
 width="512.000000pt" height="512.000000pt" viewBox="0 0 512.000000 512.000000"
 preserveAspectRatio="xMidYMid meet">
<metadata>
Created by potrace 1.14, written by Peter Selinger 2001-2017
</metadata>
<g transform="translate(0.000000,512.000000) scale(0.100000,-0.100000)"
fill="#000000" stroke="none">
<path d="M1958 4985 c-1 -2 -100 -6 -218 -9 -118 -4 -251 -9 -295 -11 -44 -3
-129 -7 -190 -10 -217 -9 -321 -29 -457 -87 -303 -128 -530 -399 -602 -718
-21 -91 -24 -125 -32 -285 -4 -77 -8 -162 -9 -190 -27 -570 -27 -1737 0 -2235
2 -30 6 -116 9 -190 4 -74 9 -146 11 -160 2 -14 7 -43 10 -66 8 -57 38 -158
68 -231 125 -295 404 -527 717 -597 90 -20 125 -24 285 -32 77 -3 165 -8 195
-9 536 -27 1631 -27 2230 0 211 9 333 18 390 26 210 31 401 124 554 270 219
207 316 439 331 789 4 80 8 170 10 200 27 486 27 1800 0 2245 -3 39 -7 124
-10 190 -2 66 -7 136 -10 155 -3 19 -7 49 -9 65 -24 190 -147 418 -307 570
-117 111 -246 188 -389 234 -135 43 -176 48 -580 66 -63 3 -167 8 -230 11
-126 6 -1466 14 -1472 9z"/>
</g>
</svg>
